<?xml version="1.0" encoding="utf-8"?>
<!-- Generator: Adobe Illustrator 25.4.1, SVG Export Plug-In . SVG Version: 6.00 Build 0)  -->
<svg version="1.1" id="Layer_1" xmlns="http://www.w3.org/2000/svg" xmlns:xlink="http://www.w3.org/1999/xlink" x="0px" y="0px"
	 viewBox="0 0 308.2 69.27" style="enable-background:new 0 0 308.2 69.27;" xml:space="preserve">
<style type="text/css">
	.st0{fill:url(#SVGID_1_);}
	.st1{fill:url(#SVGID_00000173135097548615154780000012966378246329238704_);}
	.st2{fill:url(#SVGID_00000158738421416935803120000003583025597051356049_);}
	.st3{fill:url(#SVGID_00000111876443995268938010000007143596942540699818_);}
	.st4{fill:url(#SVGID_00000099637030603781251220000004875806802917683898_);}
	.st5{fill:url(#SVGID_00000026122787315268531430000005258188614533014410_);}
	.st6{fill:url(#SVGID_00000133493150317199099780000010150629369859367840_);}
	.st7{fill:url(#SVGID_00000087385377327115034550000008924387797472236199_);}
	.st8{fill:url(#SVGID_00000112630335979446825020000013006828064950886815_);}
	.st9{fill:url(#SVGID_00000063626913174580856560000003857240664926179755_);}
</style>
<g>
	<linearGradient id="SVGID_1_" gradientUnits="userSpaceOnUse" x1="-8.7461" y1="36.6242" x2="302.9501" y2="87.6622">
		<stop  offset="0" style="stop-color:#844A9D"/>
		<stop  offset="1" style="stop-color:#EE2236"/>
	</linearGradient>
	<path class="st0" d="M26.61,24.14l0.75-2.41c0.44-1.42,1.46-2.12,3.07-2.12c0.86,0,1.57,0.31,2.12,0.92
		c0.49,0.55,0.75,1.24,0.75,2.06v26.48c0,5.12-1.37,8.96-4.1,11.52c-2.52,2.35-6.19,3.53-11,3.53c-5.03,0-8.9-1.13-11.64-3.38
		c-1.32-1.07-1.98-2.24-1.98-3.49c0-0.69,0.2-1.3,0.6-1.83c0.71-0.96,1.56-1.43,2.55-1.43c0.67,0,1.47,0.36,2.41,1.09
		c2.37,1.82,5.04,2.72,7.99,2.72c3.19,0,5.44-1.22,6.74-3.67c0.69-1.26,1.03-2.74,1.03-4.44v-4.24c-0.69,1.16-1.56,2.1-2.61,2.81
		c-1.85,1.26-3.97,1.89-6.36,1.89c-4.58,0-8.23-1.84-10.92-5.53c-1.97-2.69-2.95-5.95-2.95-9.77c0-3,0.67-5.71,2.01-8.11
		c1.45-2.6,3.49-4.54,6.1-5.82c1.87-0.94,3.81-1.41,5.82-1.41C21.06,19.5,24.26,21.04,26.61,24.14z M25.9,35.23v-1.66
		c0-2.27-0.83-4.24-2.49-5.91c-1.39-1.42-3.09-2.12-5.1-2.12c-2.79,0-4.93,1.23-6.42,3.69c-0.96,1.58-1.43,3.47-1.43,5.65
		c0,2.32,0.51,4.29,1.52,5.94c1.47,2.33,3.57,3.49,6.3,3.49c2.29,0,4.18-1.01,5.67-3.04C25.24,39.54,25.9,37.52,25.9,35.23z"/>
	
		<linearGradient id="SVGID_00000052795105142288722700000005539751023556709562_" gradientUnits="userSpaceOnUse" x1="-6.878" y1="25.2157" x2="304.8182" y2="76.2537">
		<stop  offset="0" style="stop-color:#844A9D"/>
		<stop  offset="1" style="stop-color:#EE2236"/>
	</linearGradient>
	<path style="fill:url(#SVGID_00000052795105142288722700000005539751023556709562_);" d="M59.77,23.71l0.17-1.86
		c0.13-1.57,1.16-2.35,3.07-2.35c1.53,0,2.58,0.58,3.15,1.75c0.19,0.4,0.28,0.85,0.28,1.35v25.59c0,0.65-0.14,1.22-0.43,1.72
		c-0.57,0.94-1.53,1.41-2.87,1.41c-1.85,0-2.92-0.96-3.21-2.89l-0.32-1.98c-1.89,3.4-5.13,5.1-9.72,5.1
		c-4.89,0-8.65-1.97-11.29-5.91c-1.87-2.79-2.81-6.17-2.81-10.15c0-3.76,0.96-7.04,2.87-9.83c1.57-2.31,3.59-3.99,6.07-5.04
		c1.72-0.75,3.53-1.12,5.42-1.12C54.42,19.5,57.62,20.9,59.77,23.71z M59.17,35.97v-2.29c0-2.12-0.78-3.97-2.35-5.56
		c-1.58-1.61-3.42-2.41-5.5-2.41c-2.41,0-4.35,1.01-5.82,3.01c-1.3,1.78-1.95,4.02-1.95,6.74c0,2.33,0.46,4.33,1.37,5.99
		c1.42,2.54,3.53,3.81,6.33,3.81c1.74,0,3.33-0.66,4.76-1.98C58.12,41.35,59.17,38.92,59.17,35.97z"/>
	
		<linearGradient id="SVGID_00000119811848203275436630000009469292432447853699_" gradientUnits="userSpaceOnUse" x1="-5.9826" y1="19.7473" x2="305.7136" y2="70.7852">
		<stop  offset="0" style="stop-color:#844A9D"/>
		<stop  offset="1" style="stop-color:#EE2236"/>
	</linearGradient>
	<path style="fill:url(#SVGID_00000119811848203275436630000009469292432447853699_);" d="M78.18,24.36
		c1.83-3.25,4.65-4.87,8.45-4.87c1.93,0,3.62,0.53,5.07,1.57c1.16,0.84,2.03,2.02,2.58,3.53c2.16-3.4,5.28-5.1,9.37-5.1
		c3.59,0,6.22,1.58,7.88,4.76c1.01,1.93,1.52,4.29,1.52,7.08v16.85c0,0.82-0.27,1.5-0.8,2.04c-0.71,0.73-1.67,1.09-2.89,1.09
		c-1.63,0-2.72-0.6-3.29-1.81c-0.19-0.38-0.28-0.82-0.28-1.32V32.05c0-1.34-0.23-2.52-0.69-3.55c-0.75-1.66-1.88-2.49-3.41-2.49
		c-1.39,0-2.69,0.7-3.9,2.09c-1.28,1.51-1.92,3.2-1.92,5.07v15.08c0,0.75-0.25,1.39-0.75,1.95c-0.71,0.75-1.67,1.12-2.89,1.12
		c-1.53,0-2.62-0.54-3.27-1.63c-0.25-0.4-0.37-0.88-0.37-1.43V32.33c0-1.61-0.25-2.95-0.75-4.04C87.14,26.76,86.1,26,84.7,26
		c-1.45,0-2.8,0.77-4.04,2.32c-1.26,1.58-1.89,3.33-1.89,5.24v14.62c0,0.76-0.23,1.41-0.69,1.92c-0.73,0.8-1.72,1.21-2.98,1.21
		c-1.58,0-2.68-0.57-3.29-1.72c-0.21-0.4-0.32-0.87-0.32-1.41V22.7c0-0.78,0.25-1.44,0.75-1.98c0.61-0.67,1.39-1.01,2.35-1.01
		c2.04,0,3.18,1.01,3.41,3.04L78.18,24.36z"/>
	
		<linearGradient id="SVGID_00000119834007396996924690000013404096158981765253_" gradientUnits="userSpaceOnUse" x1="-4.9121" y1="13.2098" x2="306.7841" y2="64.2478">
		<stop  offset="0" style="stop-color:#844A9D"/>
		<stop  offset="1" style="stop-color:#EE2236"/>
	</linearGradient>
	<path style="fill:url(#SVGID_00000119834007396996924690000013404096158981765253_);" d="M123.2,37.3
		c0.12,2.31,0.94,4.18,2.46,5.62c1.66,1.57,3.76,2.35,6.31,2.35c2.88,0,5.35-1.05,7.39-3.15c0.55-0.59,1.21-0.89,1.95-0.89
		c0.84,0,1.62,0.35,2.32,1.06c0.65,0.67,0.97,1.46,0.97,2.38c0,1.05-0.53,2.07-1.57,3.07c-2.73,2.62-6.52,3.93-11.35,3.93
		c-4.18,0-7.69-1.16-10.52-3.49c-3.73-3.04-5.59-7.25-5.59-12.64c0-3.99,1.05-7.42,3.15-10.26c2.91-3.95,6.98-5.93,12.24-5.93
		c4.34,0,7.91,1.59,10.72,4.78c2.39,2.69,3.58,5.72,3.58,9.08c0,1.49-0.28,2.53-0.83,3.13c-0.61,0.65-1.61,0.98-2.98,0.98
		L123.2,37.3L123.2,37.3z M123.32,31.53h13.5c0.59,0,0.89-0.24,0.89-0.72c0-1.03-0.43-2.07-1.29-3.13
		c-1.32-1.63-3.16-2.44-5.53-2.44c-1.42,0-2.74,0.36-3.98,1.09C124.89,27.51,123.7,29.24,123.32,31.53z"/>
	
		<linearGradient id="SVGID_00000078030865238866938960000018081553608057816744_" gradientUnits="userSpaceOnUse" x1="-3.1471" y1="2.4306" x2="308.5491" y2="53.4685">
		<stop  offset="0" style="stop-color:#844A9D"/>
		<stop  offset="1" style="stop-color:#EE2236"/>
	</linearGradient>
	<path style="fill:url(#SVGID_00000078030865238866938960000018081553608057816744_);" d="M152.8,20.38v-3.41
		c0-2.94,0.86-5.33,2.58-7.16c1.79-1.91,4.25-2.87,7.36-2.87c3.15,0,5.66,1.11,7.51,3.33c0.61,0.73,0.92,1.53,0.92,2.41
		c0,1.07-0.44,1.92-1.32,2.55c-0.63,0.44-1.32,0.66-2.06,0.66c-1.13,0-2.02-0.49-2.66-1.49c-0.49-0.78-1.24-1.17-2.24-1.17
		c-1.03,0-1.79,0.47-2.29,1.41c-0.34,0.65-0.52,1.45-0.52,2.41v3.35h7.39c0.61,0,1.14,0.21,1.57,0.63c0.59,0.57,0.89,1.37,0.89,2.38
		c0,1.22-0.42,2.11-1.26,2.66c-0.34,0.21-0.75,0.32-1.21,0.32h-7.39v21.75c0,0.94-0.33,1.68-0.97,2.24
		c-0.75,0.63-1.63,0.95-2.66,0.95c-1.43,0-2.48-0.49-3.15-1.49c-0.33-0.48-0.49-1.04-0.49-1.69V26.37h-5.76
		c-0.65,0-1.18-0.21-1.61-0.63c-0.57-0.57-0.86-1.37-0.86-2.38c0-1.15,0.35-1.99,1.06-2.52c0.4-0.31,0.87-0.46,1.41-0.46
		C147.03,20.38,152.8,20.38,152.8,20.38z"/>
	
		<linearGradient id="SVGID_00000158024746590615548290000002320081599414165404_" gradientUnits="userSpaceOnUse" x1="-3.5489" y1="4.884" x2="308.1473" y2="55.922">
		<stop  offset="0" style="stop-color:#844A9D"/>
		<stop  offset="1" style="stop-color:#EE2236"/>
	</linearGradient>
	<path style="fill:url(#SVGID_00000158024746590615548290000002320081599414165404_);" d="M179.49,34.34v13.79
		c0,0.82-0.27,1.51-0.8,2.06c-0.73,0.75-1.7,1.12-2.92,1.12c-1.45,0-2.51-0.49-3.18-1.49c-0.33-0.48-0.49-1.04-0.49-1.69V22.65
		c0-0.76,0.24-1.42,0.72-1.95c0.69-0.73,1.62-1.09,2.78-1.09c1.47,0,2.51,0.55,3.09,1.66c0.23,0.4,0.34,0.86,0.34,1.37v3.01
		c0.97-1.68,1.95-2.98,2.92-3.9c1.79-1.64,3.95-2.46,6.45-2.46c1.97,0,3.66,0.62,5.07,1.86c1.01,0.9,1.52,1.92,1.52,3.07
		c0,0.82-0.28,1.58-0.83,2.29c-0.76,0.97-1.75,1.46-2.95,1.46c-0.78,0-1.44-0.21-1.98-0.63c-0.71-0.55-1.53-0.83-2.46-0.83
		C183.92,26.52,181.5,29.12,179.49,34.34z"/>
	
		<linearGradient id="SVGID_00000036240009094860393640000008284224681330685327_" gradientUnits="userSpaceOnUse" x1="-2.0776" y1="-4.1011" x2="309.6186" y2="46.9369">
		<stop  offset="0" style="stop-color:#844A9D"/>
		<stop  offset="1" style="stop-color:#EE2236"/>
	</linearGradient>
	<path style="fill:url(#SVGID_00000036240009094860393640000008284224681330685327_);" d="M200.48,6.8c0.84,0,1.64,0.24,2.41,0.72
		c1.51,0.9,2.26,2.23,2.26,3.98c0,1.22-0.42,2.28-1.26,3.18c-0.92,1.01-2.07,1.52-3.47,1.52c-0.78,0-1.53-0.19-2.24-0.57
		c-1.63-0.92-2.44-2.3-2.44-4.16c0-1.45,0.54-2.64,1.63-3.55C198.28,7.17,199.32,6.8,200.48,6.8z M204.21,22.91v25.16
		c0,0.78-0.24,1.44-0.72,1.98c-0.73,0.84-1.75,1.26-3.07,1.26c-1.49,0-2.58-0.53-3.27-1.57c-0.31-0.48-0.46-1.03-0.46-1.66V22.91
		c0-1.15,0.49-2.02,1.49-2.61c0.69-0.42,1.44-0.63,2.26-0.63c0.97,0,1.83,0.28,2.58,0.83C203.82,21.11,204.21,21.91,204.21,22.91z"
		/>
	
		<linearGradient id="SVGID_00000130627024667826225170000004852790311326900408_" gradientUnits="userSpaceOnUse" x1="-2.5057" y1="-1.4865" x2="309.1905" y2="49.5514">
		<stop  offset="0" style="stop-color:#844A9D"/>
		<stop  offset="1" style="stop-color:#EE2236"/>
	</linearGradient>
	<path style="fill:url(#SVGID_00000130627024667826225170000004852790311326900408_);" d="M215.36,37.3
		c0.12,2.31,0.94,4.18,2.46,5.62c1.66,1.57,3.76,2.35,6.3,2.35c2.88,0,5.35-1.05,7.39-3.15c0.55-0.59,1.21-0.89,1.95-0.89
		c0.84,0,1.62,0.35,2.32,1.06c0.65,0.67,0.97,1.46,0.97,2.38c0,1.05-0.53,2.07-1.57,3.07c-2.73,2.62-6.52,3.93-11.35,3.93
		c-4.18,0-7.69-1.16-10.52-3.49c-3.73-3.04-5.59-7.25-5.59-12.64c0-3.99,1.05-7.42,3.15-10.26c2.91-3.95,6.98-5.93,12.24-5.93
		c4.34,0,7.91,1.59,10.72,4.78c2.39,2.69,3.58,5.72,3.58,9.08c0,1.49-0.28,2.53-0.83,3.13c-0.61,0.65-1.61,0.98-2.98,0.98
		L215.36,37.3L215.36,37.3z M215.47,31.53h13.5c0.59,0,0.89-0.24,0.89-0.72c0-1.03-0.43-2.07-1.29-3.13
		c-1.32-1.63-3.16-2.44-5.53-2.44c-1.42,0-2.74,0.36-3.98,1.09C217.05,27.51,215.86,29.24,215.47,31.53z"/>
	
		<linearGradient id="SVGID_00000068670991052906138330000006178516822112577954_" gradientUnits="userSpaceOnUse" x1="-1.7714" y1="-5.9713" x2="309.9248" y2="45.0667">
		<stop  offset="0" style="stop-color:#844A9D"/>
		<stop  offset="1" style="stop-color:#EE2236"/>
	</linearGradient>
	<path style="fill:url(#SVGID_00000068670991052906138330000006178516822112577954_);" d="M246.75,24.82
		c1.09-1.47,2.38-2.64,3.87-3.49c2.08-1.22,4.28-1.83,6.59-1.83c3.46,0,6.22,1.16,8.28,3.49c1.83,2.04,2.75,5.1,2.75,9.17v15.96
		c0,0.76-0.23,1.42-0.69,1.95c-0.73,0.82-1.75,1.23-3.07,1.23c-1.49,0-2.57-0.52-3.24-1.55c-0.31-0.48-0.46-1.02-0.46-1.63V32.99
		c0-1.68-0.27-3.09-0.8-4.24c-0.86-1.83-2.26-2.75-4.21-2.75c-2.06,0-4.03,1.07-5.9,3.21c-1.49,1.68-2.24,3.41-2.24,5.19v13.73
		c0,0.82-0.27,1.51-0.8,2.06c-0.73,0.75-1.7,1.12-2.92,1.12c-1.51,0-2.6-0.52-3.27-1.55c-0.31-0.46-0.46-1.01-0.46-1.63V22.76
		c0-0.76,0.18-1.41,0.54-1.92c0.54-0.78,1.36-1.17,2.46-1.17c1.76,0,2.81,0.96,3.15,2.87L246.75,24.82z"/>
	
		<linearGradient id="SVGID_00000077308446932756772970000018312257762270181001_" gradientUnits="userSpaceOnUse" x1="0.2358" y1="-18.2297" x2="311.932" y2="32.8083">
		<stop  offset="0" style="stop-color:#844A9D"/>
		<stop  offset="1" style="stop-color:#EE2236"/>
	</linearGradient>
	<path style="fill:url(#SVGID_00000077308446932756772970000018312257762270181001_);" d="M294.01,23.36V10.32
		c0-0.75,0.23-1.38,0.69-1.92c0.71-0.82,1.72-1.23,3.04-1.23c1.47,0,2.54,0.52,3.21,1.55c0.31,0.48,0.46,1.01,0.46,1.61v37.86
		c0,0.86-0.21,1.55-0.63,2.06c-0.57,0.71-1.39,1.06-2.46,1.06c-1.74,0-2.78-0.92-3.13-2.75l-0.46-2.46
		c-0.76,1.47-1.81,2.65-3.13,3.53c-1.93,1.28-4.18,1.92-6.76,1.92c-4.87,0-8.63-1.97-11.26-5.91c-1.87-2.79-2.81-6.18-2.81-10.18
		c0-3.9,1.01-7.27,3.04-10.12c2.77-3.9,6.52-5.85,11.24-5.85C288.97,19.5,291.96,20.79,294.01,23.36z M294.06,35.97v-2.29
		c0-2.91-1.28-5.17-3.84-6.79c-1.22-0.78-2.54-1.17-3.95-1.17c-2.46,0-4.43,1.02-5.9,3.07c-1.28,1.78-1.92,4.01-1.92,6.68
		c0,2.32,0.45,4.28,1.35,5.91c1.43,2.6,3.56,3.9,6.39,3.9c1.85,0,3.51-0.73,4.96-2.18C293.09,41.17,294.06,38.8,294.06,35.97z"/>
</g>
</svg>
